# xmcd
#
# Track frame offsets: 
#        150
#        6470
#        23317
#        40250
#        60210
#        80662
#        97765
#        116585
#        133195
#        151105
#        169000
#
# Disc length: 2503 seconds
#
# Revision: 2
# Processed by: cddbd v1.5.2PL0 Copyright (c) Steve Scherf et al.
# Submitted via: ExactAudioCopyFreeDBPlugin 1.0
#
DISCID=7609c50b
DTITLE=Wild 'T' And The Spirit - Love Crazy
DYEAR=1900
DGENRE=
TTITLE0=Mean Mama Jam
TTITLE1=Mean Mean Mama
TTITLE2=Love Crazy
TTITLE3=Yvonne
TTITLE4=Can't Getcha (Outta My Mind)
TTITLE5=Shotdown Spellbound
TTITLE6=Midnight Blues
TTITLE7=Crash and Burn
TTITLE8=Two Of A Kind
TTITLE9=Betsy-Lu
TTITLE10=Life Goes On
EXTD=
EXTT0=
EXTT1=
EXTT2=
EXTT3=
EXTT4=
EXTT5=
EXTT6=
EXTT7=
EXTT8=
EXTT9=
EXTT10=
PLAYORDER=
